<svg width="512" height="512" viewBox="0 0 512 512" fill="none" xmlns="http://www.w3.org/2000/svg">
  <rect width="512" height="512" rx="120" fill="#050505"/>
  <rect x="24" y="24" width="464" height="464" rx="100" stroke="#F4F4F0" stroke-opacity="0.08" stroke-width="2"/>
  <g stroke="#F4F4F0" stroke-opacity="0.07" stroke-width="2">
    <path d="M128 64V448M192 64V448M256 64V448M320 64V448M384 64V448"/>
    <path d="M64 128H448M64 192H448M64 256H448M64 320H448M64 384H448"/>
  </g>
  <path d="M84 172H176" stroke="#F4F4F0" stroke-opacity="0.35" stroke-width="14" stroke-linecap="round"/>
  <path d="M60 218H168" stroke="#F4F4F0" stroke-opacity="0.6" stroke-width="14" stroke-linecap="round"/>
  <path d="M100 264H176" stroke="#F4F4F0" stroke-opacity="0.35" stroke-width="14" stroke-linecap="round"/>
  <path d="M204 132L388 240L204 348Z" fill="#D7FF00"/>
  <path d="M232 188L316 240L232 292Z" fill="#050505"/>
  <g fill="#F4F4F0">
    <rect x="132" y="392" width="20" height="36" rx="4"/>
    <rect x="172" y="376" width="20" height="52" rx="4"/>
    <rect x="212" y="400" width="20" height="28" rx="4"/>
    <rect x="252" y="364" width="20" height="64" rx="4" fill="#D7FF00"/>
    <rect x="292" y="388" width="20" height="40" rx="4"/>
    <rect x="332" y="372" width="20" height="56" rx="4"/>
    <rect x="372" y="398" width="20" height="30" rx="4"/>
  </g>
</svg>
